:SAMPLES-PER-SECOND 30
:FRAME-RANGE 1-3549
:FULLY-SPECIFIED
:DEGREES
2330
root  -30.1843 38.5674 33.7579 -0.0393066 40.3941 2.22759
RightUpLeg  -21.0592 1.03394 -6.60374
RightLeg  50.3643 -9.14023 -11.955
RightFoot  -6.78509 -0.319938 6.87215
RightToes  1.218e-010 1.26228e-014 -6.01869e-014
Spine  -9.41461 1.68156 -1.04966
Spine1  13.364 2.35076 -4.00612
HEad  46.7186 -13.3336 -2.31953
LeftShoulder1  1.996 -6.33746 -14.0214
LeftArm  49.4188 -28.1483 -70.5364
LeftForeArm  53.2719 -67.0808 -20.9459
LeftHand  -0.141543 3.9984 10.7516
RightShoulder  2.99748 6.94334 23.1577
RightArm  -32.6657 36.6483 54.9632
RightForeArm  41.4275 -4.33942 -7.13004
RightHand  -0.0898456 -4.41561 -8.65474
LeftUpLeg  -8.52189 -4.05839 -8.89153
LeftLeg  23.524 6.2888 3.52523
LeftFoot  -12.6328 0.141453 5.80106
LeftToes  -1.43952e-010 7.51141e-011 -1.22592e-011
2331
root  -29.603 38.6485 34.665 -0.134949 42.6926 1.76374
RightUpLeg  -21.7196 2.0123 -6.98144
RightLeg  42.1087 -11.1184 -10.8421
RightFoot  -5.5772 -0.382548 6.83518
RightToes  1.218e-010 1.26228e-014 -6.01869e-014
Spine  -10.0583 1.58708 -0.220541
Spine1  13.4074 2.36524 -4.13822
HEad  44.9249 -11.0298 -1.10635
LeftShoulder1  2.01043 -6.60592 -13.5644
LeftArm  52.0817 -28.9596 -72.5841
LeftForeArm  54.3228 -67.0892 -20.8189
LeftHand  -0.143157 3.99209 10.8452
RightShoulder  3.07269 7.22645 23.0837
RightArm  -31.8143 36.7608 55.3707
RightForeArm  40.0281 -4.44307 -6.70957
RightHand  -0.0788294 -4.55757 -8.4941
LeftUpLeg  -6.47162 -4.19055 -8.26491
LeftLeg  22.7226 4.3302 2.61451
LeftFoot  -13.8108 0.210649 5.91307
LeftToes  -1.43952e-010 7.51141e-011 -1.22592e-011
2332
root  -29.0366 38.6699 35.5559 -0.0919189 44.9951 1.58408
RightUpLeg  -21.8209 3.08816 -7.81047
RightLeg  33.2445 -11.7008 -8.37378
RightFoot  -6.30518 -0.343992 6.83689
RightToes  1.218e-010 1.26228e-014 -6.01869e-014
Spine  -10.3369 1.57804 0.251172
Spine1  13.2609 2.39526 -4.02793
HEad  43.3075 -8.32409 -0.133961
LeftShoulder1  2.04444 -6.89595 -13.2961
LeftArm  54.8833 -29.602 -74.3018
LeftForeArm  55.0032 -66.4053 -19.9292
LeftHand  -0.16084 3.81801 11.0078
RightShoulder  3.08648 7.31059 22.9769
RightArm  -31.6111 36.7028 55.9704
RightForeArm  39.4292 -4.44464 -6.76732
RightHand  -0.0719555 -4.65037 -8.4092
LeftUpLeg  -4.55262 -4.6913 -7.80652
LeftLeg  22.1759 2.70685 1.93803
LeftFoot  -15.1256 0.276406 5.60865
LeftToes  -1.43952e-010 7.51141e-011 -1.22592e-011
2333
root  -28.4759 38.6448 36.4496 0.211243 47.204 1.63246
RightUpLeg  -21.447 4.12411 -9.02677
RightLeg  23.5185 -10.5282 -5.18487
RightFoot  -7.32519 -0.317858 7.63124
RightToes  1.218e-010 1.26228e-014 -6.01869e-014
Spine  -10.5368 1.5812 0.672424
Spine1  13.0166 2.47074 -4.05499
HEad  41.4475 -4.26996 1.31064
LeftShoulder1  2.08453 -7.19781 -13.0817
LeftArm  57.3859 -29.799 -75.5122
LeftForeArm  55.412 -65.3529 -18.7478
LeftHand  -0.161982 3.85206 11.3472
RightShoulder  3.11679 7.39399 23.0377
RightArm  -31.3102 36.6582 56.4652
RightForeArm  39.2574 -4.46077 -6.69557
RightHand  -0.0599023 -4.82889 -8.44264
LeftUpLeg  -2.8746 -5.48939 -7.47629
LeftLeg  21.8468 1.42404 1.44134
LeftFoot  -16.3424 0.34488 5.64222
LeftToes  -1.43952e-010 7.51141e-011 -1.22592e-011
2334
root  -27.91 38.6068 37.3634 0.964355 49.1844 2.04849
RightUpLeg  -21.1966 5.39249 -10.5837
RightLeg  14.254 -7.77271 -2.54635
RightFoot  -7.83198 -0.308516 8.31491
RightToes  1.218e-010 1.26228e-014 -6.01869e-014
Spine  -10.993 1.63459 0.903593
Spine1  13.0879 2.58647 -3.95378
HEad  38.9005 1.4783 3.07537
LeftShoulder1  2.08587 -7.32604 -12.8311
LeftArm  58.8443 -29.5145 -76.3041
LeftForeArm  54.7507 -64.3797 -17.8666
LeftHand  -0.173995 3.76209 11.6144
RightShoulder  3.15408 7.49242 23.1232
RightArm  -31.1291 36.4749 57.0364
RightForeArm  39.5404 -4.46192 -6.658
RightHand  -0.0412635 -5.10208 -8.50333
LeftUpLeg  -1.25638 -5.91217 -7.23837
LeftLeg  21.2291 0.0398832 0.950356
LeftFoot  -17.4249 0.41027 5.74373
LeftToes  -1.43952e-010 7.51141e-011 -1.22592e-011
2335
root  -27.3246 38.5129 38.3154 2.07001 51.0278 2.8469
RightUpLeg  -21.0384 -0.0766526 -9.45518
RightLeg  6.61513 1.91303 -2.1572
RightFoot  -8.13667 -0.341526 10.2001
RightToes  1.218e-010 1.26228e-014 -6.01869e-014
Spine  -11.4245 1.69174 1.03881
Spine1  13.1436 2.73391 -4.01572
HEad  36.5793 8.58411 4.61278
LeftShoulder1  2.09016 -7.22872 -13.0764
LeftArm  59.1957 -29.1283 -76.3599
LeftForeArm  54.0797 -63.8203 -17.4234
LeftHand  -0.194153 3.6402 12.199
RightShoulder  3.2075 7.58093 23.3924
RightArm  -30.8253 36.3068 57.4019
RightForeArm  39.7493 -4.49028 -6.47538
RightHand  -0.0411494 -5.10472 -8.54726
LeftUpLeg  0.311768 -6.01353 -7.08111
LeftLeg  20.6929 -1.60852 0.418383
LeftFoot  -18.5811 0.476023 5.753
LeftToes  -1.43952e-010 7.51141e-011 -1.22592e-011
2336
root  -26.7097 38.3716 39.3224 2.83594 52.7193 3.45409
RightUpLeg  -21.1723 -3.31531 -8.70705
RightLeg  2.41581 7.88756 -2.32296
RightFoot  -8.8934 -0.329629 12.5404
RightToes  1.218e-010 1.26228e-014 -6.01869e-014
Spine  -11.6077 1.92966 1.53695
Spine1  13.1325 3.04196 -4.31844
HEad  34.392 16.1582 5.72004
LeftShoulder1  2.10027 -7.05707 -13.5466
LeftArm  59.0657 -28.7993 -76.1402
LeftForeArm  56.0528 -63.9978 -17.3743
LeftHand  -0.193814 3.72782 12.8271
RightShoulder  3.25725 7.66006 23.6483
RightArm  -30.3285 36.0074 57.5624
RightForeArm  39.7326 -4.56425 -6.06094
RightHand  -0.0376634 -5.15723 -8.69756
LeftUpLeg  2.00423 -6.10196 -6.64338
LeftLeg  20.5183 -3.12812 -0.0755572
LeftFoot  -19.9469 0.541846 5.60245
LeftToes  -1.43952e-010 7.51141e-011 -1.22592e-011
2337
root  -26.1159 38.166 40.3867 3.66113 54.2771 4.2405
RightUpLeg  -22.0233 -3.12593 -8.98828
RightLeg  3.51788 8.23428 -1.78119
RightFoot  -9.29539 -0.291723 12.7357
RightToes  1.218e-010 1.26228e-014 -6.01869e-014
Spine  -11.5555 2.25782 1.8991
Spine1  13.1986 3.45039 -4.69197
HEad  32.5977 23.6267 6.49485
LeftShoulder1  2.09582 -6.89767 -13.8473
LeftArm  59.0415 -28.7734 -75.9495
LeftForeArm  57.0962 -64.4003 -17.6331
LeftHand  -0.174977 3.96956 13.4408
RightShoulder  3.33072 7.80541 23.9377
RightArm  -30.671 35.9276 57.6607
RightForeArm  40.7604 -4.48988 -6.36276
RightHand  -0.0458446 -5.04872 -8.93897
LeftUpLeg  3.4261 -6.85045 -6.21606
LeftLeg  21.152 -3.98671 -0.571213
LeftFoot  -21.422 0.57548 5.06064
LeftToes  -1.43952e-010 7.51141e-011 -1.22592e-011
2338
root  -25.5455 38.0839 41.4289 4.10321 55.8325 4.5956
RightUpLeg  -22.9287 -0.0546514 -9.57723
RightLeg  7.42902 5.37793 -1.53648
RightFoot  -6.1246 -0.580066 11.7757
RightToes  1.218e-010 1.26228e-014 -6.01869e-014
Spine  -11.385 2.62158 2.7511
Spine1  13.5264 3.74243 -4.65951
HEad  31.0945 30.9846 6.61449
LeftShoulder1  2.08095 -6.80619 -13.8901
LeftArm  58.9283 -28.6459 -75.7344
LeftForeArm  58.5427 -64.7824 -17.839
LeftHand  -0.17488 4.03089 14.0612
RightShoulder  3.38755 7.94602 24.0764
RightArm  -30.6881 35.8517 58.0701
RightForeArm  41.298 -4.45786 -6.48003
RightHand  -0.0279067 -5.29405 -9.25987
LeftUpLeg  4.98282 -8.51094 -5.58034
LeftLeg  21.2748 -4.05665 -0.941002
LeftFoot  -21.8379 0.486926 3.87034
LeftToes  -1.43952e-010 7.51141e-011 -1.22592e-011
2339
root  -24.9553 38.0827 42.4926 4.237 57.7447 4.47172
RightUpLeg  -23.2986 4.6885 -10.2993
RightLeg  10.5998 2.14132 -2.05908
RightFoot  -1.36192 -1.12394 12.7178
RightToes  1.218e-010 1.26228e-014 -6.01869e-014
Spine  -11.3004 2.91922 4.18209
Spine1  13.7274 3.95431 -4.6935
HEad  30.3206 37.3282 6.72738
LeftShoulder1  2.03338 -6.59665 -13.8407
LeftArm  59.3096 -28.5787 -75.5189
LeftForeArm  60.1083 -65.3201 -18.1935
LeftHand  -0.163071 4.147 14.2525
RightShoulder  3.40877 7.88234 24.4569
RightArm  -31.681 35.5092 58.5824
RightForeArm  42.5383 -4.27321 -7.36761
RightHand  -0.0350593 -5.20206 -9.51465
LeftUpLeg  6.23601 -10.2164 -4.40589
LeftLeg  21.6056 -4.49799 -1.60924
LeftFoot  -21.43 0.325027 2.22379
LeftToes  -1.43952e-010 7.51141e-011 -1.22592e-011
2340
root  -24.3462 38.0735 43.5726 3.53802 59.2971 3.62107
RightUpLeg  -24.232 9.32303 -11.0649
RightLeg  15.2735 -2.69063 -1.48696
RightFoot  0.975453 -1.3432 12.4651
RightToes  1.218e-010 1.26228e-014 -6.01869e-014
Spine  -10.2118 3.29512 6.15845
Spine1  12.9322 4.30827 -5.12685
HEad  30.6221 42.876 6.42922
LeftShoulder1  2.05942 -6.48959 -14.3799
LeftArm  59.5353 -27.9154 -75.1077
LeftForeArm  61.692 -65.633 -18.3365
LeftHand  -0.148542 4.29749 14.6587
RightShoulder  3.43281 7.83778 24.8121
RightArm  -31.9604 34.7851 58.6027
RightForeArm  42.9778 -4.24943 -7.44669
RightHand  -0.0290607 -5.27899 -9.81667
LeftUpLeg  6.73836 -11.2947 -2.9548
LeftLeg  23.8217 -5.09996 -2.11907
LeftFoot  -20.4812 0.0978985 -0.312657
LeftToes  -1.43952e-010 7.51141e-011 -1.22592e-011
2341
root  -23.7567 38.0447 44.6139 2.80585 60.5389 2.51478
RightUpLeg  -24.6577 7.06867 -9.24502
RightLeg  19.1568 -1.39601 -0.748609
RightFoot  1.11277 -1.31046 12.0391
RightToes  1.218e-010 1.26228e-014 -6.01869e-014
Spine  -9.5122 3.63878 7.99576
Spine1  12.8047 4.62126 -5.30207
HEad  30.8776 47.8281 5.46246
LeftShoulder1  2.06426 -6.26325 -14.9811
LeftArm  59.4854 -27.235 -74.8351
LeftForeArm  62.2029 -65.729 -18.379
LeftHand  -0.156979 4.25826 15.0592
RightShoulder  3.48036 8.02871 24.7086
RightArm  -31.9897 34.3481 58.7749
RightForeArm  42.9741 -4.25385 -7.42236
RightHand  -0.0283533 -5.28755 -10.1301
LeftUpLeg  5.25251 -10.7196 -0.863738
LeftLeg  28.8917 -5.99714 -3.22564
LeftFoot  -18.2133 -0.10605 -3.58366
LeftToes  -1.43952e-010 7.51141e-011 -1.22592e-011
2342
root  -23.2638 38.0855 45.5462 1.93457 62.825 1.03445
RightUpLeg  -24.2733 4.58155 -7.22164
RightLeg  21.1705 -1.49759 -0.855037
RightFoot  0.730482 -1.19517 11.3162
RightToes  1.218e-010 1.26228e-014 -6.01869e-014
Spine  -9.14136 3.53099 9.49273
Spine1  13.1611 4.34182 -4.31605
HEad  30.4679 51.7013 4.49074
LeftShoulder1  2.07991 -6.39895 -14.8272
LeftArm  59.197 -26.7213 -74.8023
LeftForeArm  63.0964 -65.9659 -18.5257
LeftHand  -0.155123 4.30971 15.6075
RightShoulder  3.4813 8.10992 24.4878
RightArm  -32.1339 34.2103 59.2132
RightForeArm  43.2086 -4.21375 -7.61772
RightHand  -0.019241 -5.3942 -10.3392
LeftUpLeg  1.58673 -8.91402 2.12378
LeftLeg  35.9985 -6.81834 -4.93321
LeftFoot  -13.1903 -0.039384 -7.32482
LeftToes  -1.43952e-010 7.51141e-011 -1.22592e-011
2343
root  -22.8201 38.174 46.4261 0.357056 65.5251 -1.22554
RightUpLeg  -23.5078 3.59551 -5.34513
RightLeg  22.4003 -3.10395 -1.62614
RightFoot  -0.422479 -0.962442 10.0156
RightToes  1.218e-010 1.26228e-014 -6.01869e-014
Spine  -8.51855 3.39218 11.0878
Spine1  12.932 4.09263 -3.56322
HEad  29.8706 53.8484 4.12343
LeftShoulder1  2.06219 -6.40847 -14.604
LeftArm  59.6726 -26.9717 -75.1738
LeftForeArm  64.3353 -66.1717 -18.6074
LeftHand  -0.130496 4.52136 16.1017
RightShoulder  3.45439 8.03758 24.4423
RightArm  -32.6072 34.111 59.1462
RightForeArm  43.551 -4.14481 -7.96054
RightHand  -0.00968107 -5.51196 -10.0972
LeftUpLeg  -3.43557 -8.14853 4.7618
LeftLeg  43.9111 -5.48239 -5.23197
LeftFoot  -6.69415 0.42157 -9.38738
LeftToes  -1.43952e-010 7.51141e-011 -1.22592e-011
2344
root  -22.3548 38.2134 47.2615 -2.11218 67.7322 -3.89319
RightUpLeg  -22.3071 1.44118 -3.28383
RightLeg  23.4961 -3.05099 -1.67861
RightFoot  -2.48422 -0.658963 8.27509
RightToes  1.218e-010 1.26228e-014 -6.01869e-014
Spine  -7.5052 3.49197 12.8919
Spine1  12.5355 4.24025 -3.36506
HEad  29.2011 55.0118 3.97991
LeftShoulder1  2.06188 -6.46836 -14.4577
LeftArm  59.9469 -27.321 -75.7594
LeftForeArm  65.367 -66.0578 -18.3825
LeftHand  -0.0974274 4.77469 16.4358
RightShoulder  3.46625 8.07078 24.4587
RightArm  -33.4848 34.0056 58.5481
RightForeArm  43.6404 -4.04465 -8.50886
RightHand  -0.000645188 -5.61189 -10.3436
LeftUpLeg  -7.88809 -7.38302 6.3301
LeftLeg  50.7718 -2.59901 -2.96249
LeftFoot  -2.63055 0.52007 -6.6175
LeftToes  -1.43952e-010 7.51141e-011 -1.22592e-011
